HIERARCHY
ROOT joint_Root
{
	OFFSET 0.0 0.0 0.0
	CHANNELS 6 Xposition Yposition Zposition Zrotation Xrotation Yrotation 
	JOINT Hips
	{
		OFFSET -17.1583 93.1646 452.98
		CHANNELS 6 Xposition Yposition Zposition Zrotation Xrotation Yrotation 
		JOINT Spine
		{
			OFFSET 15.7357 0.0 0.0
			CHANNELS 6 Xposition Yposition Zposition Zrotation Xrotation Yrotation 
			JOINT Chest
			{
				OFFSET 8.98455 -0.406207 0.0
				CHANNELS 6 Xposition Yposition Zposition Zrotation Xrotation Yrotation 
				JOINT Neck
				{
					OFFSET 16.3773 0.0 0.0
					CHANNELS 6 Xposition Yposition Zposition Zrotation Xrotation Yrotation 
					JOINT Head
					{
						OFFSET 6.45672 0.0 0.0
						CHANNELS 6 Xposition Yposition Zposition Zrotation Xrotation Yrotation 
						End Site
						{
							OFFSET 0.0 0.0 0.0
						}
					}
				}
				JOINT Shoulder_L
				{
					OFFSET 12.9942 -0.242716 4.98039
					CHANNELS 6 Xposition Yposition Zposition Zrotation Xrotation Yrotation 
					JOINT UpperArm_L
					{
						OFFSET 5.34809 0.0 0.0
						CHANNELS 6 Xposition Yposition Zposition Zrotation Xrotation Yrotation 
						JOINT LowerArm_L
						{
							OFFSET 24.3286 1.87007e-05 0.0
							CHANNELS 6 Xposition Yposition Zposition Zrotation Xrotation Yrotation 
							JOINT Hand_L
							{
								OFFSET 22.2916 0.0 0.0
								CHANNELS 6 Xposition Yposition Zposition Zrotation Xrotation Yrotation 
								End Site
								{
									OFFSET 0.0 0.0 0.0
								}
							}
						}
					}
				}
				JOINT Shoulder_R
				{
					OFFSET 12.9945 -0.242716 -4.98039
					CHANNELS 6 Xposition Yposition Zposition Zrotation Xrotation Yrotation 
					JOINT UpperArm_R
					{
						OFFSET -5.34813 0.0 0.0
						CHANNELS 6 Xposition Yposition Zposition Zrotation Xrotation Yrotation 
						JOINT LowerArm_R
						{
							OFFSET -24.3289 0.000322201 0.0
							CHANNELS 6 Xposition Yposition Zposition Zrotation Xrotation Yrotation 
							JOINT Hand_R
							{
								OFFSET -22.2915 -0.000108084 0.0
								CHANNELS 6 Xposition Yposition Zposition Zrotation Xrotation Yrotation 
								End Site
								{
									OFFSET 0.0 0.0 0.0
								}
							}
						}
					}
				}
			}
		}
		JOINT UpperLeg_L
		{
			OFFSET -2.19248 -6.46944 0.0
			CHANNELS 6 Xposition Yposition Zposition Zrotation Xrotation Yrotation 
			JOINT LowerLeg_L
			{
				OFFSET 39.0811 0.0 -1.23785e-05
				CHANNELS 6 Xposition Yposition Zposition Zrotation Xrotation Yrotation 
				JOINT Foot_L
				{
					OFFSET 40.9854 0.0 -1.26872e-05
					CHANNELS 6 Xposition Yposition Zposition Zrotation Xrotation Yrotation 
					JOINT Toes_L
					{
						OFFSET 11.7543 0.0 0.0
						CHANNELS 6 Xposition Yposition Zposition Zrotation Xrotation Yrotation 
						End Site
						{
							OFFSET 0.0 0.0 0.0
						}
					}
				}
			}
		}
		JOINT UpperLeg_R
		{
			OFFSET -2.19251 6.46944 0.0
			CHANNELS 6 Xposition Yposition Zposition Zrotation Xrotation Yrotation 
			JOINT LowerLeg_R
			{
				OFFSET -39.0811 -0.00228153 -0.0401928
				CHANNELS 6 Xposition Yposition Zposition Zrotation Xrotation Yrotation 
				JOINT Foot_R
				{
					OFFSET -40.9854 0.0 0.0
					CHANNELS 6 Xposition Yposition Zposition Zrotation Xrotation Yrotation 
					JOINT Toes_R
					{
						OFFSET -11.7543 0.0 0.0
						CHANNELS 6 Xposition Yposition Zposition Zrotation Xrotation Yrotation 
						End Site
						{
							OFFSET 0.0 0.0 0.0
						}
					}
				}
			}
		}
	}
}
MOTION
Frames:	4
Frame Time:	0.0333333
0.000000 0.000000 0.000000 0.000000 0.000000 -0.000000 1.332830 92.662900 3.068630 88.002500 1.711250 2.897740 15.735700 0.000005 -0.000001 81.162600 86.566600 -87.420100 8.984550 -0.406207 -0.000000 -0.981445 -0.578413 -12.514600 16.377300 -0.000001 -0.000001 0.655216 1.140040 -9.646050 6.456720 -0.000001 -0.000000 -1.204260 3.435900 -18.363100 12.994200 -0.242716 4.980390 -92.676000 8.237130 -71.932100 5.348090 -0.000007 -0.000001 -58.040800 -2.604140 0.204330 24.328600 0.000019 0.000005 11.870000 29.220700 -23.294500 22.291600 -0.000001 0.000005 -0.350977 4.929440 8.785300 12.994500 -0.242716 -4.980390 94.418500 -8.682170 -62.892900 -5.348130 -0.000001 -0.000004 -71.506000 -59.715400 -75.095100 -24.328900 0.000322 -0.000009 -0.001287 -52.734100 -0.000387 -22.291500 -0.000108 -0.000004 52.963800 4.575130 15.336800 -2.192480 -6.469440 -0.000000 -174.244000 -4.150370 2.051760 39.081100 -0.000007 -0.000012 0.021286 -0.068972 17.151300 40.985400 -0.000006 -0.000013 1.084680 13.658600 -70.843800 11.754300 -0.000000 0.000003 -0.002667 0.204404 -8.283050 -2.192510 6.469440 -0.000001 175.065000 9.186390 -174.290000 -39.081100 -0.002282 -0.040193 -0.014603 0.090266 11.240500 -40.985400 0.000008 0.000006 -10.560700 7.848700 -67.308500 -11.754300 -0.000006 -0.000006 -0.010880 0.277764 -5.286720
0.000000 0.000000 0.000000 0.000000 0.000000 -0.000000 1.261890 92.671200 3.081910 87.987100 1.717160 2.796730 15.735700 0.000005 -0.000001 79.700400 86.662900 -85.874100 8.984550 -0.406207 -0.000000 -1.207760 -0.710867 -12.350300 16.377300 -0.000001 -0.000001 0.630981 1.116580 -9.651420 6.456720 -0.000001 -0.000000 -1.006710 3.321050 -18.246100 12.994200 -0.242716 4.980390 -92.621800 8.083490 -71.962400 5.348090 -0.000007 -0.000001 -57.829700 -2.735210 0.401988 24.328600 0.000019 0.000005 11.796400 29.652200 -22.886400 22.291600 -0.000001 0.000005 -0.203001 4.927520 8.824280 12.994500 -0.242716 -4.980390 94.339400 -8.503940 -62.835500 -5.348130 -0.000001 -0.000004 -67.358000 -58.915000 -73.110000 -24.328900 0.000322 -0.000009 -0.001240 -52.388400 -0.000382 -22.291500 -0.000108 -0.000004 54.387700 4.563770 15.533200 -2.192480 -6.469440 -0.000000 -174.166000 -4.226380 2.015080 39.081100 -0.000007 -0.000012 0.021143 -0.068911 17.056800 40.985400 -0.000006 -0.000013 1.033950 13.758600 -70.884800 11.754300 -0.000000 0.000003 -0.002859 0.206631 -8.192450 -2.192510 6.469440 -0.000001 175.159000 9.147680 -174.357000 -39.081100 -0.002282 -0.040193 -0.014408 0.089719 11.187700 -40.985400 0.000008 0.000006 -10.505200 7.758990 -67.366800 -11.754300 -0.000006 -0.000006 -0.011240 0.280352 -5.180810
0.000000 0.000000 0.000000 0.000000 0.000000 -0.000000 1.226020 92.662100 3.105820 88.008200 1.540180 2.860610 15.735700 0.000005 -0.000001 79.492000 86.705500 -85.575600 8.984550 -0.406207 -0.000000 -1.296650 -0.721509 -12.171000 16.377300 -0.000001 -0.000001 0.583070 0.960644 -9.371660 6.456720 -0.000001 -0.000000 -0.846481 3.138920 -18.192300 12.994200 -0.242716 4.980390 -92.579900 7.982890 -72.024400 5.348090 -0.000007 -0.000001 -57.597900 -3.085600 0.468638 24.328600 0.000019 0.000005 11.699900 29.844600 -22.593700 22.291600 -0.000001 0.000005 -0.019688 4.921000 8.956330 12.994500 -0.242716 -4.980390 94.252800 -8.315620 -62.789000 -5.348130 -0.000001 -0.000004 -64.025600 -58.538300 -73.459000 -24.328900 0.000322 -0.000009 -0.001196 -51.483300 -0.000370 -22.291500 -0.000108 -0.000004 53.969000 4.598310 14.941600 -2.192480 -6.469440 -0.000000 -174.147000 -4.375830 2.132160 39.081100 -0.000007 -0.000012 0.021554 -0.070321 17.041000 40.985400 -0.000006 -0.000013 1.005860 13.738100 -70.877000 11.754300 -0.000000 0.000003 -0.002855 0.206583 -8.194410 -2.192510 6.469440 -0.000001 175.177000 8.997510 -174.394000 -39.081100 -0.002282 -0.040193 -0.014083 0.086622 11.370300 -40.985400 0.000008 0.000006 -10.294800 7.799160 -67.479800 -11.754300 -0.000006 -0.000006 -0.011019 0.278772 -5.245480
0.000000 0.000000 0.000000 0.000000 0.000000 -0.000000 1.196180 92.668400 3.103080 88.044600 1.284560 2.900190 15.735700 0.000005 -0.000001 79.837800 86.769000 -85.834900 8.984550 -0.406207 -0.000000 -1.411740 -0.660736 -11.998300 16.377300 -0.000001 -0.000001 0.607889 0.737006 -8.941470 6.456720 -0.000001 -0.000000 -0.768158 2.958520 -18.056800 12.994200 -0.242716 4.980390 -92.550400 7.881930 -72.005400 5.348090 -0.000007 -0.000001 -57.369100 -3.542690 0.287744 24.328600 0.000019 0.000005 11.686500 30.235200 -22.331300 22.291600 -0.000001 0.000005 0.031105 4.918570 9.005370 12.994500 -0.242716 -4.980390 94.229800 -8.219420 -62.646500 -5.348130 -0.000001 -0.000004 -60.480800 -58.372700 -74.739200 -24.328900 0.000322 -0.000009 -0.000956 -49.062400 -0.000340 -22.291500 -0.000108 -0.000004 50.996000 4.640980 14.200400 -2.192480 -6.469440 -0.000000 -174.170000 -4.464040 2.289160 39.081100 -0.000007 -0.000012 0.022841 -0.075188 16.898100 40.985400 -0.000006 -0.000013 0.945947 13.598000 -70.851000 11.754300 -0.000000 0.000003 -0.002980 0.208002 -8.136640 -2.192510 6.469440 -0.000001 175.171000 8.811590 -174.440000 -39.081100 -0.002282 -0.040193 -0.013667 0.083810 11.468700 -40.985400 0.000008 0.000006 -10.202100 7.810560 -67.583500 -11.754300 -0.000006 -0.000006 -0.011416 0.281597 -5.129820
